<?xml version="1.0" encoding="iso-8859-1"?>
<!-- Generator: Adobe Illustrator 18.1.1, SVG Export Plug-In . SVG Version: 6.00 Build 0)  -->
<svg version="1.1" id="Capa_1" xmlns="http://www.w3.org/2000/svg" xmlns:xlink="http://www.w3.org/1999/xlink" x="0px" y="0px"
	 viewBox="0 0 478.165 478.165" style="enable-background:new 0 0 478.165 478.165;" xml:space="preserve">
<g>
	<path id="Steam_2_" d="M442.302,178.286c0,24.426-19.704,44.131-44.091,44.131c-24.586,0-44.31-19.684-44.31-44.131
		c0-24.327,19.704-44.131,44.31-44.131C422.598,134.155,442.302,153.939,442.302,178.286z M424.511,252.74l-53.614,45.724
		c0.757,3.666,0.976,7.372,0.976,11.137c0,38.831-31.479,70.191-70.569,70.191c-33.631,0-61.683-23.39-68.756-54.71l-132.511-44.828
		c-10.4,7.93-23.45,12.632-37.655,12.632C27.953,292.946,0,265.272,0,231.003c0-34.328,27.953-62.141,62.341-62.141
		c29.626,0,54.371,20.541,60.707,48.115l127.849,43.234c12.512-12.612,29.726-20.521,48.813-20.86l19.166-58.097
		c-0.02-1.175-0.319-2.311-0.319-3.487c0-43.752,35.842-79.395,79.794-79.395c44.23-0.02,79.814,35.524,79.814,79.375
		C478.165,212.554,455.751,242.001,424.511,252.74z M101.57,209.725c-7.491-13.369-21.737-22.434-38.134-22.434
		c-24.187,0-43.633,19.425-43.633,43.453c0,23.928,19.465,43.473,43.633,43.473c4.443,0,8.707-0.558,12.691-1.873l-20.74-7.013
		c-16.636-8.906-22.952-29.666-14.026-46.262c9.025-16.576,29.826-22.892,46.462-13.986L101.57,209.725z M336.249,177.987
		c0,34.089,27.853,61.663,62.002,61.663c34.169,0,61.803-27.594,61.803-61.663c0-34.049-27.634-61.643-61.803-61.643
		C364.102,116.324,336.249,143.898,336.249,177.987z M337.524,315.718c0-26.08-21.278-47.039-47.159-47.039
		c-3.706,0-7.292,0.418-10.659,1.275l26.239,8.906c16.756,8.906,23.151,29.527,14.026,46.243
		c-8.926,16.716-29.606,22.892-46.342,14.006l-28.431-9.703c5.977,19.405,23.829,33.153,45.147,33.153
		C316.485,362.519,337.524,341.479,337.524,315.718z"/>
</g>
<g>
</g>
<g>
</g>
<g>
</g>
<g>
</g>
<g>
</g>
<g>
</g>
<g>
</g>
<g>
</g>
<g>
</g>
<g>
</g>
<g>
</g>
<g>
</g>
<g>
</g>
<g>
</g>
<g>
</g>
</svg>
